PathFileType	4	(X/Y/Z)	C:\Users\Graham\Documents\MATLAB\MOtoNMS_v2_2\MyData\ElaboratedData\S8\22-05-17\staticElaborations\Static1\Static1\\Static1.trc
DataRate	CameraRate	NumFrames	NumMarkers	Units	OrigDataRate	DataStartFrame
100	100	9	38	mm	100	2
Frame#	Time	V_Sacral			R_ASIS			L_ASIS			R_Knee_Lat			R_Knee_Med			R_Thigh_Upper			R_Thigh_Front			R_Thigh_Rear			L_Knee_Lat			L_Knee_Med			L_Thigh_Upper			L_Thigh_Front			L_Thigh_Rear			R_Ankle_Lat			R_Ankle_Med			R_Shank_Upper			R_Shank_Front			R_Shank_Rear			L_Ankle_Lat			L_Ankle_Med			L_Shank_Upper			L_Shank_Front			L_Shank_Rear			R_Heel			R_MTP1			R_MTP5			L_Heel			L_MTP1			L_MTP5			Clavicle			R_Acromium			L_Acromium			LAJC			RAJC			LHJC			RHJC			LKJC			RKJC		
		X1	Y1	Z1	X2	Y2	Z2	X3	Y3	Z3	X4	Y4	Z4	X5	Y5	Z5	X6	Y6	Z6	X7	Y7	Z7	X8	Y8	Z8	X9	Y9	Z9	X10	Y10	Z10	X11	Y11	Z11	X12	Y12	Z12	X13	Y13	Z13	X14	Y14	Z14	X15	Y15	Z15	X16	Y16	Z16	X17	Y17	Z17	X18	Y18	Z18	X19	Y19	Z19	X20	Y20	Z20	X21	Y21	Z21	X22	Y22	Z22	X23	Y23	Z23	X24	Y24	Z24	X25	Y25	Z25	X26	Y26	Z26	X27	Y27	Z27	X28	Y28	Z28	X29	Y29	Z29	X30	Y30	Z30	X31	Y31	Z31	X32	Y32	Z32	X33	Y33	Z33	X34	Y34	Z34	X35	Y35	Z35	X36	Y36	Z36	X37	Y37	Z37	X38	Y38	Z38	

2	0.010000	-245.912691	1017.656348	-10.007101	-46.489277	992.852625	136.692135	-22.788442	993.362438	-93.797800	-129.900225	526.059448	178.207706	-145.218820	528.680560	41.876849	-13.420615	817.954296	139.196584	-28.179288	704.032063	90.404995	-47.262043	702.999248	161.333613	-108.855297	537.236588	-142.737979	-145.990771	530.669903	-8.474913	8.274783	813.027048	-61.379728	-19.755989	688.917434	-36.496289	-14.918287	696.210293	-111.899303	-183.006152	92.234118	142.120611	-171.247851	100.676118	66.341175	-111.402773	332.960235	130.381674	-145.726562	225.531621	84.919097	-140.422435	218.837778	157.611478	-177.680410	88.383562	-113.411762	-164.483377	99.697880	-36.201026	-109.039013	327.483296	-96.540737	-140.793076	220.710382	-53.298423	-127.541769	210.593032	-126.038910	-241.134848	51.481449	95.704718	-28.210173	63.854545	82.303335	-47.243671	51.560876	158.291307	-234.905906	56.455829	-74.574828	-26.756333	66.275645	-59.908874	-42.842838	52.398288	-135.054801	-74.039169	1389.399823	23.513368	-161.835939	1437.721840	176.649444	-143.740093	1448.702381	-158.624050	-171.081893	94.040721	-74.806394	-177.127001	96.455118	104.230893	-95.968073	920.429417	-69.224759	-113.104035	920.060817	97.421983	-127.423034	533.953245	-75.606446	-137.559522	527.370004	110.042277	
3	0.020000	-245.907930	1017.658181	-10.018647	-46.498308	992.850051	136.687611	-22.784032	993.370607	-93.797900	-129.889587	526.062705	178.199941	-145.206618	528.677504	41.866131	-13.409233	817.960137	139.191884	-28.171864	704.030640	90.397077	-47.252748	703.000960	161.326742	-108.846439	537.236090	-142.736664	-145.985546	530.669213	-8.474119	7.355052	812.459095	-61.440747	-19.685315	689.160835	-36.485856	-14.913030	696.210140	-111.891737	-183.002793	92.234209	142.118837	-171.250001	100.674897	66.336887	-111.397783	332.957360	130.374178	-145.728679	225.528168	84.913838	-140.413613	218.838129	157.610102	-177.680611	88.382106	-113.413146	-164.479308	99.699621	-36.200080	-109.036302	327.481576	-96.536083	-140.786958	220.713373	-53.299976	-127.545972	210.603814	-126.046920	-241.136071	51.485991	95.709725	-28.208250	63.851285	82.300284	-47.239618	51.561432	158.289307	-234.910827	56.464001	-74.573610	-26.753908	66.271404	-59.910630	-42.842844	52.392595	-135.050928	-74.043601	1389.398569	23.520622	-161.843240	1437.714148	176.660977	-143.739258	1448.711119	-158.615859	-171.079959	94.040863	-74.806613	-177.126397	96.454553	104.227862	-95.963015	920.436591	-69.232920	-113.108714	920.060223	97.410810	-127.415992	533.952652	-75.605392	-137.548103	527.370104	110.033036	
4	0.030000	-245.903586	1017.659882	-10.029798	-46.507268	992.847897	136.682822	-22.779727	993.378611	-93.798288	-129.880384	526.065725	178.191871	-145.194841	528.674647	41.855662	-13.398904	817.965730	139.187021	-28.165492	704.029408	90.388990	-47.244316	703.002697	161.319794	-108.837804	537.235675	-142.735069	-145.979876	530.668710	-8.473209	6.499576	811.931455	-61.498972	-19.620420	689.386405	-36.475717	-14.908065	696.210089	-111.884761	-182.999954	92.234579	142.116630	-171.252172	100.673700	66.332488	-111.392999	332.954838	130.366819	-145.730388	225.525036	84.908663	-140.405747	218.838719	157.608206	-177.681006	88.381005	-113.414220	-164.475849	99.701333	-36.199387	-109.033647	327.480074	-96.531563	-140.781508	220.716112	-53.301780	-127.550361	210.613822	-126.054059	-241.137215	51.490253	95.714406	-28.206604	63.848295	82.297324	-47.235878	51.561869	158.287343	-234.920759	56.473565	-74.572631	-26.751355	66.267308	-59.912417	-42.842891	52.387170	-135.047108	-74.047490	1389.397721	23.527359	-161.850703	1437.705700	176.671861	-143.738400	1448.719651	-158.608093	-171.078427	94.041169	-74.806803	-177.126063	96.454139	104.224559	-95.958032	920.443600	-69.241127	-113.113342	920.059887	97.399610	-127.408840	533.952193	-75.604139	-137.537613	527.370186	110.023766	
5	0.040000	-245.900078	1017.661392	-10.040357	-46.516162	992.846486	136.677575	-22.775642	993.386267	-93.799264	-129.874060	526.068392	178.183457	-145.184004	528.672148	41.845702	-13.390742	817.970912	139.182020	-28.161188	704.028615	90.380756	-47.237850	703.004581	161.312786	-108.829763	537.235418	-142.733177	-145.973657	530.668568	-8.472282	5.762101	811.477469	-61.550736	-19.565859	689.580531	-36.466338	-14.903619	696.210295	-111.878813	-182.998085	92.235468	142.113698	-171.254276	100.672517	66.327952	-111.388810	332.952982	130.359864	-145.731389	225.522557	84.903698	-140.399802	218.839708	157.605404	-177.681697	88.380520	-113.414838	-164.473403	99.703120	-36.199167	-109.031215	327.479020	-96.527352	-140.777185	220.718682	-53.304171	-127.554923	210.622606	-126.060249	-241.138321	51.493996	95.718444	-28.205321	63.845812	82.294646	-47.232687	51.562102	158.285558	-234.935283	56.484022	-74.571784	-26.748542	66.263547	-59.914305	-42.842969	52.382324	-135.043433	-74.050391	1389.397527	23.533012	-161.858446	1437.696258	176.681378	-143.737104	1448.727919	-158.601206	-171.077550	94.041820	-74.807003	-177.126181	96.453993	104.220825	-95.953268	920.450262	-69.249470	-113.117980	920.059993	97.388361	-127.401710	533.951993	-75.602730	-137.529032	527.370270	110.014580	
6	0.050000	-245.897743	1017.662689	-10.050181	-46.524950	992.846041	136.671776	-22.771869	993.393382	-93.801037	-129.871674	526.070618	178.174744	-145.174591	528.670099	41.836464	-13.385646	817.975540	139.176972	-28.159670	704.028437	90.372521	-47.234275	703.006696	161.305765	-108.822658	537.235370	-142.731090	-145.966962	530.668890	-8.471485	5.178916	811.119616	-61.593376	-19.524640	689.733991	-36.458191	-14.899835	696.210862	-111.874240	-182.997482	92.237011	142.109871	-171.256245	100.671342	66.323299	-111.385535	332.951993	130.353523	-145.731568	225.520938	84.898996	-140.396478	218.841148	157.601465	-177.682721	88.380827	-113.414935	-164.472226	99.705077	-36.199554	-109.029186	327.478564	-96.523618	-140.774264	220.721237	-53.307396	-127.559602	210.629884	-126.065545	-241.139440	51.497045	95.721584	-28.204433	63.844003	82.292437	-47.230275	51.562100	158.284097	-234.952899	56.494549	-74.570922	-26.745377	66.260269	-59.916332	-42.843058	52.378268	-135.039950	-74.052013	1389.398077	23.537142	-161.866510	1437.685752	176.688967	-143.734995	1448.735854	-158.595568	-171.077474	94.042952	-74.807244	-177.126864	96.454177	104.216585	-95.948860	920.456403	-69.257969	-113.122673	920.060668	97.377120	-127.394810	533.952130	-75.601288	-137.523132	527.370358	110.005604	
7	0.060000	-245.896820	1017.663802	-10.059191	-46.533544	992.846657	136.665447	-22.768477	993.399752	-93.803705	-129.873786	526.072351	178.165870	-145.167042	528.668512	41.828103	-13.384204	817.979501	139.172042	-28.161282	704.028959	90.364562	-47.234261	703.009072	161.298811	-108.816798	537.235548	-142.729041	-145.960079	530.669693	-8.471008	4.765267	810.867340	-61.625550	-19.498093	689.842334	-36.451726	-14.896784	696.211829	-111.871280	-182.998255	92.239212	142.105116	-171.258026	100.670176	66.318611	-111.383402	332.951937	130.347927	-145.731011	225.520242	84.894530	-140.396140	218.842971	157.596344	-177.684043	88.382002	-113.414539	-164.472396	99.707272	-36.200570	-109.027748	327.478759	-96.520530	-140.772809	220.723990	-53.311587	-127.564273	210.635579	-126.070194	-241.140626	51.499288	95.723673	-28.203922	63.842952	82.290859	-47.228843	51.561886	158.283100	-234.970898	56.503978	-74.569857	-26.741821	66.257571	-59.918502	-42.843137	52.375091	-135.036657	-74.052265	1389.399275	23.539474	-161.874831	1437.674329	176.694264	-143.731761	1448.743387	-158.591437	-171.078219	94.044637	-74.807554	-177.128141	96.454694	104.211863	-95.944957	920.461858	-69.266567	-113.127450	920.061963	97.366026	-127.388438	533.952621	-75.600025	-137.520414	527.370431	109.996986	
8	0.070000	-245.897442	1017.664813	-10.067385	-46.541822	992.848288	136.658717	-22.765535	993.405176	-93.807265	-129.880439	526.073588	178.157072	-145.161736	528.667330	41.820718	-13.386641	817.982722	139.167446	-28.165990	704.030173	90.357246	-47.238191	703.011685	161.292031	-108.812460	537.235935	-142.727383	-145.953491	530.670906	-8.471079	4.515889	810.717380	-61.647243	-19.486118	689.905197	-36.447342	-14.894501	696.213155	-111.870061	-183.000327	92.241955	142.099542	-171.259569	100.669021	66.314033	-111.382562	332.952742	130.343144	-145.729972	225.520398	84.890229	-140.398802	218.844993	157.590197	-177.685550	88.384009	-113.413762	-164.473812	99.709735	-36.202140	-109.027090	327.479565	-96.518262	-140.772683	220.727183	-53.316750	-127.568732	210.639824	-126.074671	-241.141927	51.500687	95.724686	-28.203734	63.842653	82.290039	-47.228518	51.561536	158.282693	-234.985441	56.510832	-74.568368	-26.737902	66.255494	-59.920778	-42.843172	52.372772	-135.033527	-74.051269	1389.400850	23.539909	-161.883225	1437.662363	176.697113	-143.727160	1448.750464	-158.588951	-171.079681	94.046872	-74.807951	-177.129948	96.455488	104.206787	-95.941723	920.466486	-69.275142	-113.132342	920.063848	97.355283	-127.382976	533.953420	-75.599231	-137.521088	527.370459	109.988895	
9	0.080000	-245.899642	1017.665850	-10.074838	-46.549662	992.850751	136.651779	-22.763120	993.409470	-93.811632	-129.891217	526.074378	178.148674	-145.158961	528.666449	41.814353	-13.392808	817.985184	139.163421	-28.173437	704.031991	90.350967	-47.246139	703.014473	161.285556	-108.809879	537.236477	-142.726554	-145.947826	530.672387	-8.471939	4.408821	810.656123	-61.659494	-19.487621	689.925174	-36.445342	-14.893032	696.214734	-111.870616	-183.003466	92.245042	142.093374	-171.260816	100.667874	66.309766	-111.383109	332.954239	130.339207	-145.728786	225.521237	84.886018	-140.404172	218.846955	157.583356	-177.687077	88.386708	-113.412780	-164.476225	99.712457	-36.204110	-109.027382	327.480878	-96.516994	-140.773588	220.731051	-53.322783	-127.572699	210.642936	-126.079683	-241.143372	51.501267	95.724738	-28.203792	63.843020	82.290057	-47.229316	51.561160	158.282976	-234.991911	56.513466	-74.566208	-26.733717	66.254027	-59.923097	-42.843126	52.371215	-135.030529	-74.049326	1389.402415	23.538503	-161.891398	1437.650432	176.697543	-143.721016	1448.757060	-158.588139	-171.081651	94.049583	-74.808445	-177.132141	96.456458	104.201570	-95.939350	920.470178	-69.283542	-113.137393	920.066215	97.345118	-127.378853	533.954432	-75.599246	-137.525089	527.370413	109.981514	
10	0.090000	-245.903367	1017.667077	-10.081706	-46.556982	992.853747	136.644844	-22.761336	993.412491	-93.816671	-129.905383	526.074827	178.141062	-145.158893	528.665739	41.809011	-13.402223	817.986927	139.160175	-28.183054	704.034266	90.346054	-47.257892	703.017344	161.279529	-108.809254	537.237096	-142.727012	-145.943769	530.673954	-8.473817	4.411181	810.663158	-61.664001	-19.500937	689.906810	-36.445898	-14.892486	696.216415	-111.872887	-183.007336	92.248239	142.086919	-171.261702	100.666727	66.306040	-111.385109	332.956210	130.336149	-145.727786	225.522550	84.881876	-140.411738	218.848587	157.576284	-177.688432	88.389878	-113.411798	-164.479280	99.715392	-36.206293	-109.028761	327.482556	-96.516891	-140.775133	220.735767	-53.329502	-127.575838	210.645365	-126.086128	-241.144960	51.501105	95.724060	-28.204013	63.843905	82.290939	-47.231105	51.560881	158.284012	-234.985565	56.510295	-74.563136	-26.729418	66.253124	-59.925379	-42.842959	52.370295	-135.027668	-74.046846	1389.403546	23.535430	-161.898974	1437.639238	176.695730	-143.713208	1448.763196	-158.588928	-171.083856	94.052635	-74.809045	-177.134519	96.457483	104.196479	-95.938055	920.472875	-69.291625	-113.142686	920.068894	97.335724	-127.376511	533.955525	-75.600415	-137.532138	527.370283	109.975037	
